# xmcd
#
# Track frame offsets:
#	187
#	11857
#	19950
#	35857
#	50127
#	66067
#	75495
#	102402
#	133482
#	145120
#	156567
#	172090
#	185052
#	195267
#	205047
#	222825
#	238890
#	254102
#	263475
#	282567
#	296147
#	308125
#
# Disc length: 4297 seconds
#
# Revision: 1
# Processed by: cddbd v1.5.1PL0 Copyright (c) Steve Scherf et al.
# Submitted via: CDex 1.50Beta5
#
DISCID=6610c716
DTITLE=さまざまなアーティスト - ウェディング
DYEAR=1900
DGENRE=Other
TTITLE0=結婚行進曲
TTITLE1=結婚行進曲
TTITLE2=愛の喜び
TTITLE3=花嫁人形
TTITLE4=華麗なる大円舞曲
TTITLE5=越天楽
TTITLE6=さくらさくら変奏曲
TTITLE7=六段の調べ
TTITLE8=バラ色の人生
TTITLE9=二人の世界
TTITLE10=世界は二人のために
TTITLE11=愛の賛歌
TTITLE12=真珠採りのロマンス
TTITLE13=ポッケリーニのメヌエット
TTITLE14=モーツァルトのメヌエット
TTITLE15=主よ人の望みの喜びよ
TTITLE16=金と銀
TTITLE17=美しきロスマリン
TTITLE18=愛の夢
TTITLE19=埴生の宿
TTITLE20=アヴェ・マリア
TTITLE21=母さんの歌
EXTD=
EXTT0=
EXTT1=
EXTT2=
EXTT3=
EXTT4=
EXTT5=
EXTT6=
EXTT7=
EXTT8=
EXTT9=
EXTT10=
EXTT11=
EXTT12=
EXTT13=
EXTT14=
EXTT15=
EXTT16=
EXTT17=
EXTT18=
EXTT19=
EXTT20=
EXTT21=
PLAYORDER=
